<svg width="30" height="30" viewBox="0 0 30 30" fill="none" xmlns="http://www.w3.org/2000/svg">
    <path d="M15 4.6875C15 4.43886 14.9012 4.2004 14.7254 4.02459C14.5496 3.84877 14.3111 3.75 14.0625 3.75C13.8139 3.75 13.5754 3.84877 13.3996 4.02459C13.2238 4.2004 13.125 4.43886 13.125 4.6875V13.125H4.6875C4.43886 13.125 4.2004 13.2238 4.02459 13.3996C3.84877 13.5754 3.75 13.8139 3.75 14.0625C3.75 14.3111 3.84877 14.5496 4.02459 14.7254C4.2004 14.9012 4.43886 15 4.6875 15H13.125V23.4375C13.125 23.6861 13.2238 23.9246 13.3996 24.1004C13.5754 24.2762 13.8139 24.375 14.0625 24.375C14.3111 24.375 14.5496 24.2762 14.7254 24.1004C14.9012 23.9246 15 23.6861 15 23.4375V15H23.4375C23.6861 15 23.9246 14.9012 24.1004 14.7254C24.2762 14.5496 24.375 14.3111 24.375 14.0625C24.375 13.8139 24.2762 13.5754 24.1004 13.3996C23.9246 13.2238 23.6861 13.125 23.4375 13.125H15V4.6875Z" fill="black"/>
</svg>